<svg version="1.2" baseProfile="tiny-ps" xmlns="http://www.w3.org/2000/svg" viewBox="0 0 17 20" width="17" height="20">
	<title>Novo Projeto</title>
	<style>
		tspan { white-space:pre }
		.shp0 { fill: #000000 } 
	</style>
	<path id="bag copy" class="shp0" d="M15.74 5.47L13.6 5.47L13.6 5.34C13.6 2.4 11.31 0.01 8.49 0.01C5.67 0.01 3.38 2.4 3.38 5.34L3.38 5.47L1.24 5.47L-0.01 19.99L16.99 19.99L15.74 5.47ZM8.49 0.66C10.36 0.66 11.96 1.85 12.63 3.54C11.74 2.15 10.22 1.23 8.49 1.23C6.77 1.23 5.24 2.15 4.35 3.55C5.03 1.85 6.63 0.66 8.49 0.66ZM4.33 5.47C4.74 3.47 6.45 1.97 8.49 1.97C10.53 1.97 12.24 3.47 12.66 5.47L4.33 5.47Z" />
</svg>